<?xml version="1.0" encoding="UTF-8" standalone="no"?>
<!-- Created with Inkscape (http://www.inkscape.org/) -->

<svg
   xmlns:dc="http://purl.org/dc/elements/1.1/"
   xmlns:cc="http://creativecommons.org/ns#"
   xmlns:rdf="http://www.w3.org/1999/02/22-rdf-syntax-ns#"
   xmlns:svg="http://www.w3.org/2000/svg"
   xmlns="http://www.w3.org/2000/svg"
   xmlns:sodipodi="http://sodipodi.sourceforge.net/DTD/sodipodi-0.dtd"
   xmlns:inkscape="http://www.inkscape.org/namespaces/inkscape"
   width="119.06249mm"
   height="124.62682mm"
   viewBox="0 0 119.06249 124.62682"
   version="1.1"
   id="svg4828"
   inkscape:version="0.92.4 (5da689c313, 2019-01-14)"
   sodipodi:docname="filter.svg">
  <defs
     id="defs4822" />
  <sodipodi:namedview
     id="base"
     pagecolor="#ffffff"
     bordercolor="#666666"
     borderopacity="1.0"
     inkscape:pageopacity="0.0"
     inkscape:pageshadow="2"
     inkscape:zoom="0.98994949"
     inkscape:cx="151.83885"
     inkscape:cy="97.85623"
     inkscape:document-units="mm"
     inkscape:current-layer="layer1"
     showgrid="false"
     inkscape:window-width="1440"
     inkscape:window-height="836"
     inkscape:window-x="0"
     inkscape:window-y="27"
     inkscape:window-maximized="1"
     fit-margin-right="-2.7755576e-17"
     fit-margin-top="0"
     fit-margin-left="0"
     fit-margin-bottom="0" />
  <metadata
     id="metadata4825">
    <rdf:RDF>
      <cc:Work
         rdf:about="">
        <dc:format>image/svg+xml</dc:format>
        <dc:type
           rdf:resource="http://purl.org/dc/dcmitype/StillImage" />
        <dc:title />
      </cc:Work>
    </rdf:RDF>
  </metadata>
  <g
     inkscape:label="Layer 1"
     inkscape:groupmode="layer"
     id="layer1"
     transform="translate(-0.54844921,-0.06436051)">
    <path
       style="fill:#000000;stroke-width:0.26458332;fill-opacity:1"
       d="m 58.756775,116.34198 c -7.63984,-4.58075 -14.099696,-8.58323 -14.355236,-8.8944 -0.43567,-0.53051 -0.4604,-1.86207 -0.39688,-21.370422 l 0.0677,-20.80465 h 16.007296 16.00729 l 0.0673,28.92491 0.0673,28.924902 -0.77457,0.77457 c -1.55379,1.5538 -1.32873,1.65567 -16.69027,-7.55491 z M 45.898799,59.671518 c -0.30517,-0.0626 -0.9171,-0.43528 -1.35985,-0.82826 -1.14897,-1.0198 -42.9856728,-45.55997 -43.5346648,-46.34785 -0.39186399,-0.56237 -0.45583499,-1.34933 -0.45583499,-5.60764 0,-4.75606 0.02372,-4.98095 0.59531199,-5.64352 0.329036,-0.38139999 1.068694,-0.79938999 1.653646,-0.93447999 1.416803,-0.32721 113.1477728,-0.32721 114.5645728,0 0.58496,0.13509 1.32461,0.55308 1.65365,0.93447999 0.57107,0.66196 0.59531,0.88953 0.59531,5.5875 0,2.9441 -0.11187,5.10646 -0.28049,5.42152 -0.35245,0.65857 -43.181915,46.21368 -44.125675,46.93382 -0.67196,0.51274 -1.12902,0.53024 -14.72231,0.56368 -7.71584,0.019 -14.278496,-0.0167 -14.583666,-0.0793 z"
       id="path4886"
       inkscape:connector-curvature="0" />
  </g>
</svg>
