<?xml version="1.0" encoding="UTF-8" standalone="no"?>
<svg
   xmlns:dc="http://purl.org/dc/elements/1.1/"
   xmlns:cc="http://creativecommons.org/ns#"
   xmlns:rdf="http://www.w3.org/1999/02/22-rdf-syntax-ns#"
   xmlns:svg="http://www.w3.org/2000/svg"
   xmlns="http://www.w3.org/2000/svg"
   xmlns:sodipodi="http://sodipodi.sourceforge.net/DTD/sodipodi-0.dtd"
   xmlns:inkscape="http://www.inkscape.org/namespaces/inkscape"
   width="19.609373"
   height="16.1318"
   viewBox="0 0 19.609373 16.1318"
   version="1.1"
   id="svg4"
   sodipodi:docname="like.svg"
   inkscape:version="0.92.4 (5da689c313, 2019-01-14)"
   style="fill:none">
  <metadata
     id="metadata10">
    <rdf:RDF>
      <cc:Work
         rdf:about="">
        <dc:format>image/svg+xml</dc:format>
        <dc:type
           rdf:resource="http://purl.org/dc/dcmitype/StillImage" />
        <dc:title></dc:title>
      </cc:Work>
    </rdf:RDF>
  </metadata>
  <defs
     id="defs8" />
  <sodipodi:namedview
     pagecolor="#ffffff"
     bordercolor="#666666"
     borderopacity="1"
     objecttolerance="10"
     gridtolerance="10"
     guidetolerance="10"
     inkscape:pageopacity="0"
     inkscape:pageshadow="2"
     inkscape:window-width="1440"
     inkscape:window-height="836"
     id="namedview6"
     showgrid="false"
     inkscape:zoom="22.627417"
     inkscape:cx="4.3967037"
     inkscape:cy="-0.8306404"
     inkscape:window-x="0"
     inkscape:window-y="27"
     inkscape:window-maximized="1"
     inkscape:current-layer="svg4"
     fit-margin-top="0"
     fit-margin-left="0"
     fit-margin-right="0"
     fit-margin-bottom="0" />
  <path
     d="M 1.7074076,1.23077 C 2.5936876,0.44167 3.7924076,0 5.2759176,0 c 1.59129,0 2.90196,0.59573 3.79096,1.16146 0.2709,0.17237 0.5072,0.34479 0.7056,0.50205 C 9.9699776,1.50634 10.205078,1.33416 10.474878,1.16207 11.363878,0.59493 12.675278,0 14.275978,0 c 1.4376,0 2.62,0.41999 3.5117,1.17165 0.8835,0.74479 1.4075,1.75249 1.6515,2.80804 0.4791,2.07211 -0.0757,4.51061 -1.3822,6.14481 -1.2226,1.5293 -3.2174,2.9773 -4.8264,4.0117 -0.8186,0.5264 -1.5648,0.9628 -2.1066,1.2677 -0.2712,0.1527 -0.492,0.2729 -0.6459,0.3554 -0.077,0.0413 -0.1374,0.0732 -0.179,0.0951 l -0.0483,0.0251 -0.0131,0.0068 -0.0037,0.002 -0.0012,6e-4 -4e-4,2e-4 c -10e-5,0 -2e-4,1e-4 -0.4577004,-0.8891 -0.4794,0.8776 -0.4795,0.8776 -0.4796,0.8775 l -4e-4,-2e-4 -0.0011,-6e-4 -0.0036,-0.002 -0.0133,-0.0073 -0.0494,-0.0273 c -0.0427,-0.0237 -0.1049,-0.0584 -0.1843,-0.1032 -0.1588,-0.0895 -0.3865,-0.2195 -0.6656,-0.3831 -0.5574,-0.3268 -1.32242,-0.7893 -2.1523,-1.3322 -1.62322,-1.0619 -3.62332,-2.5125 -4.73025,-3.8972 C 0.30354764,8.6343 -0.28202236,6.2055 0.13271764,4.1203 0.34487764,3.0536 0.83212764,2.01007 1.7074076,1.23077 Z M 9.7746776,15 l -0.4794,0.8776 0.4654,0.2542 0.4715004,-0.2426 z m 0.012,-1.1409 c 0.1042,-0.0572 0.2237004,-0.1234 0.3562004,-0.198 0.5166,-0.2908 1.228,-0.7069 2.0061,-1.2072 1.5847,-1.0188 3.3405,-2.3208 4.3458,-3.5783 l 10e-5,-10e-5 c 0.9216,-1.1527 1.3381,-2.96419 0.9957,-4.44535 -0.1667,-0.72109 -0.5015,-1.31586 -0.992,-1.72936 C 16.016178,2.29415 15.309478,2 14.275978,2 c -1.0996,0 -2.0389,0.4102 -2.7255,0.84819 -0.3403,0.2171 -0.6071,0.43397 -0.7862,0.59384 -0.0891,0.07961 -0.1554,0.1441 -0.197,0.18607 -0.0208,0.02095 -0.0353,0.03619 -0.0434,0.04477 l -0.0069,0.00738 -2e-4,2.1e-4 -10e-5,1.3e-4 -0.7383004,0.82407 -0.7426,-0.82052 v -4e-5 l -2e-4,-2.5e-4 -0.0072,-0.00762 c -0.0083,-0.00871 -0.0231,-0.02408 -0.0442,-0.04516 -0.0422,-0.04223 -0.1093,-0.10699 -0.1993,-0.18687 -0.1809,-0.16042 -0.4498,-0.37783 -0.7917,-0.59541 C 7.3026776,2.4094 6.3639976,2 5.2759176,2 c -1.07007,0 -1.77221,0.30928 -2.23857,0.72451 -0.47737,0.42502 -0.79453,1.03917 -0.94305,1.78593 -0.30662,1.54166 0.16138,3.36286 0.96269,4.36506 l 4e-5,10e-5 c 0.8857,1.108 2.63496,2.4073 4.26293,3.4723 0.79572,0.5205 1.53172,0.9656 2.06902,1.2806 0.1491,0.0874 0.2827,0.1647 0.3977,0.2306 z"
     id="path2"
     inkscape:connector-curvature="0"
     style="clip-rule:evenodd;fill:#999999;fill-rule:evenodd" />
  <path
     style="fill:#ffffff;fill-opacity:1;stroke:#ffffff;stroke-width:0.03595458;stroke-opacity:1"
     d="M 9.0909536,15.743094 C 6.9201761,14.522061 4.7335705,13.061601 3.2859196,11.865843 2.6638473,11.352012 1.6346313,10.307754 1.3346609,9.886066 1.0478599,9.482891 0.64389954,8.684708 0.46885904,8.175334 -0.17028516,6.3154 -0.12629266,4.3006037 0.58655484,2.7850357 1.3688545,1.121807 2.8357095,0.1671019 4.8074194,0.0378789 c 1.624958,-0.1064973 3.2045712,0.3721386 4.6437812,1.407104 l 0.322662,0.2320325 0.2645424,-0.1956383 c 1.146348,-0.8477642 2.470411,-1.3501625 3.802822,-1.4429301 2.347377,-0.1634335 4.27181,0.8666213 5.172874,2.7687868 0.95634,2.0188547 0.700541,4.8004092 -0.627844,6.8271502 -0.914823,1.395761 -2.895805,3.077121 -5.644282,4.79059 -0.970227,0.604863 -2.8785024,1.681234 -2.9806254,1.681234 -0.01366,0 -0.315343,-0.163401 -0.670396,-0.363114 z m 1.2893524,-2.203295 c 1.712076,-0.981721 3.359705,-2.096643 4.500967,-3.045725 0.517525,-0.430378 1.445882,-1.366161 1.708931,-1.7226 0.438462,-0.594132 0.806407,-1.489305 0.953212,-2.319071 0.07653,-0.432538 0.08839,-1.3140925 0.02299,-1.7078426 C 17.314435,3.227662 16.443503,2.2962079 15.042219,2.0449686 14.66115,1.9766459 13.839758,1.9851073 13.448868,2.0613822 12.767702,2.1942993 12.057223,2.496866 11.411656,2.9289562 10.964665,3.2281354 10.641026,3.5187758 10.177475,4.0372985 9.9690386,4.2704529 9.7857296,4.456205 9.7701206,4.4500809 9.7545136,4.4439571 9.5735046,4.2545063 9.3678806,4.0290793 8.8877646,3.5027258 8.6064086,3.2528991 8.1432226,2.9416612 6.8716974,2.0872585 5.4872368,1.7920592 4.2266285,2.106552 3.3824495,2.3171552 2.7748823,2.8069837 2.4050142,3.5751606 2.0809612,4.2481848 1.9694275,4.8450621 2.0017379,5.7333114 2.0427439,6.860608 2.3653495,7.897854 2.9322421,8.72508 c 0.2429834,0.354568 1.0600262,1.172529 1.6666245,1.668496 1.0522537,0.860345 2.7674462,2.03884 4.331922,2.976428 0.464713,0.278502 0.848641,0.506514 0.853173,0.506694 0.0045,1.8e-4 0.2728864,-0.151425 0.5963444,-0.336899 z"
     id="path12"
     inkscape:connector-curvature="0" />
</svg>
