<?xml version="1.0" encoding="UTF-8" standalone="no"?>
<!-- Generator: Adobe Illustrator 16.0.0, SVG Export Plug-In . SVG Version: 6.00 Build 0)  -->

<svg
   xmlns:dc="http://purl.org/dc/elements/1.1/"
   xmlns:cc="http://creativecommons.org/ns#"
   xmlns:rdf="http://www.w3.org/1999/02/22-rdf-syntax-ns#"
   xmlns:svg="http://www.w3.org/2000/svg"
   xmlns="http://www.w3.org/2000/svg"
   xmlns:sodipodi="http://sodipodi.sourceforge.net/DTD/sodipodi-0.dtd"
   xmlns:inkscape="http://www.inkscape.org/namespaces/inkscape"
   version="1.1"
   id="Layer_1"
   x="0px"
   y="0px"
   width="401.09183"
   height="401.09384"
   viewBox="0 0 401.09183 401.09384"
   enable-background="new 0 0 512 512"
   xml:space="preserve"
   sodipodi:docname="pencil.svg"
   inkscape:version="0.92.4 (5da689c313, 2019-01-14)"><metadata
   id="metadata15"><rdf:RDF><cc:Work
       rdf:about=""><dc:format>image/svg+xml</dc:format><dc:type
         rdf:resource="http://purl.org/dc/dcmitype/StillImage" /><dc:title></dc:title></cc:Work></rdf:RDF></metadata><defs
   id="defs13" /><sodipodi:namedview
   pagecolor="#ffffff"
   bordercolor="#666666"
   borderopacity="1"
   objecttolerance="10"
   gridtolerance="10"
   guidetolerance="10"
   inkscape:pageopacity="0"
   inkscape:pageshadow="2"
   inkscape:window-width="1440"
   inkscape:window-height="836"
   id="namedview11"
   showgrid="false"
   inkscape:zoom="0.7071068"
   inkscape:cx="-535.42226"
   inkscape:cy="141.46231"
   inkscape:window-x="0"
   inkscape:window-y="27"
   inkscape:window-maximized="1"
   inkscape:current-layer="g8"
   fit-margin-top="0"
   fit-margin-left="0"
   fit-margin-right="0"
   fit-margin-bottom="0" />
<g
   id="g8"
   style="fill:#ffffff;stroke:#ffffff"
   transform="translate(-55.404263,-55.501895)">
	<path
   d="m 422.953,176.019 c 0.549,-0.48 1.09,-0.975 1.612,-1.498 l 21.772,-21.772 c 12.883,-12.883 12.883,-33.771 0,-46.654 L 405.903,65.661 c -12.883,-12.883 -33.771,-12.883 -46.653,0 l -21.772,21.772 c -0.523,0.523 -1.018,1.064 -1.498,1.613 z"
   id="path2"
   style="fill:#fffffa;fill-opacity:1;stroke:#fffffd;stroke-opacity:1"
   inkscape:connector-curvature="0" />
	<polygon
   points="106.658,448.342 56,456 63.658,405.341 71.316,354.683 114.317,397.684 157.317,440.684 "
   id="polygon4"
   style="fill:#fffffa;fill-opacity:1;stroke:#fffffd;stroke-opacity:1" />
	<polygon
   points="106.541,343.253 336.701,113.094 324.26,100.653 81.659,343.253 168.747,430.341 411.348,187.74 349.143,125.535 118.982,355.694 "
   id="polygon6"
   style="fill:#fffffa;fill-opacity:1;stroke:#fffffd;stroke-opacity:1" />
</g>
</svg>