<?xml version="1.0" encoding="UTF-8" standalone="no"?>
<svg
   xmlns:dc="http://purl.org/dc/elements/1.1/"
   xmlns:cc="http://creativecommons.org/ns#"
   xmlns:rdf="http://www.w3.org/1999/02/22-rdf-syntax-ns#"
   xmlns:svg="http://www.w3.org/2000/svg"
   xmlns="http://www.w3.org/2000/svg"
   xmlns:sodipodi="http://sodipodi.sourceforge.net/DTD/sodipodi-0.dtd"
   xmlns:inkscape="http://www.inkscape.org/namespaces/inkscape"
   width="900"
   height="1100"
   viewBox="0 0 900 1100"
   version="1.1"
   id="svg4"
   sodipodi:docname="trashcan_106521.svg"
   inkscape:version="0.92.4 (5da689c313, 2019-01-14)">
  <metadata
     id="metadata10">
    <rdf:RDF>
      <cc:Work
         rdf:about="">
        <dc:format>image/svg+xml</dc:format>
        <dc:type
           rdf:resource="http://purl.org/dc/dcmitype/StillImage" />
        <dc:title />
      </cc:Work>
    </rdf:RDF>
  </metadata>
  <defs
     id="defs8" />
  <sodipodi:namedview
     pagecolor="#ffffff"
     bordercolor="#666666"
     borderopacity="1"
     objecttolerance="10"
     gridtolerance="10"
     guidetolerance="10"
     inkscape:pageopacity="0"
     inkscape:pageshadow="2"
     inkscape:window-width="1440"
     inkscape:window-height="836"
     id="namedview6"
     showgrid="false"
     inkscape:zoom="0.41927083"
     inkscape:cx="175.2606"
     inkscape:cy="601.23945"
     inkscape:window-x="0"
     inkscape:window-y="27"
     inkscape:window-maximized="1"
     inkscape:current-layer="svg4"
     width="1440px"
     height="1100px" />
  <path
     d="M 817.42868,132.79812 H 653.95601 c 0,-40.91731 -36.78135,-74.39392 -81.73632,-74.39392 H 327.01072 c -44.95498,0 -81.73632,33.47661 -81.73632,74.39392 H 81.801734 c -44.954974,0 -81.73632464,33.47824 -81.73632464,74.39391 v 74.39556 c 0,40.91567 36.78135064,74.39392 81.73632464,74.39392 v 669.55019 c 0,40.9173 36.781346,74.3939 81.736326,74.3939 h 572.15429 c 44.95501,0 81.73633,-33.4766 81.73633,-74.3939 V 355.98151 c 44.95501,0 81.73634,-33.47825 81.73634,-74.39392 v -74.39556 c 0,-40.91567 -36.78133,-74.39391 -81.73634,-74.39391 z M 735.69235,1025.5317 H 163.53806 V 355.98151 H 245.2744 V 951.1378 h 81.73632 V 355.98151 h 81.73631 V 951.1378 h 81.73634 V 355.98151 h 81.73632 V 951.1378 h 81.73632 V 355.98151 h 81.73634 z M 817.42868,281.58759 H 81.801734 V 207.19203 H 817.42868 Z"
     id="path2"
     inkscape:connector-curvature="0"
     style="fill-rule:evenodd;stroke-width:77.97904968;fill:#ffffff" />
</svg>
